<svg width="85" height="88" viewBox="0 0 85 88" fill="none" xmlns="http://www.w3.org/2000/svg">
<path d="M42.2838 0C46.0968 0 49.7067 1.5625 52.7223 4.5C53.8473 5.59365 55.363 6.07811 56.9098 5.85938C61.0818 5.25008 64.9099 6.10944 68.0036 8.35938C71.0816 10.6094 73.0973 13.9845 73.8004 18.1406C74.0504 19.6719 75.0036 20.9688 76.3786 21.7031C80.1129 23.6562 82.7067 26.6094 83.8942 30.2344C85.066 33.8592 84.7067 37.7813 82.8317 41.5625C82.1442 42.9531 82.1442 44.5469 82.8317 45.9375C84.7066 49.7185 85.0661 53.6407 83.8942 57.2656C82.7066 60.8905 80.1129 63.8438 76.3786 65.7969C75.0036 66.5313 74.0504 67.8282 73.8004 69.3594C73.0973 73.5154 71.0816 76.8907 68.0036 79.1406C64.9097 81.3905 61.0815 82.2499 56.9098 81.6406C55.3785 81.4062 53.8473 81.9062 52.7223 83C49.7062 85.9375 46.0968 87.5 42.2838 87.5C38.471 87.5 34.8618 85.9372 31.8463 83C30.7214 81.9063 29.2056 81.4064 27.6588 81.6406C23.5023 82.25 19.6579 81.3906 16.5641 79.1406C13.4861 76.8907 11.4704 73.5154 10.7672 69.3594C10.5016 67.8281 9.56411 66.5313 8.18911 65.7969C4.45483 63.8438 1.861 60.8905 0.673484 57.2656C-0.498385 53.6408 -0.138885 49.7186 1.73598 45.9375C2.42348 44.5469 2.42348 42.9531 1.73598 41.5625C-0.138986 37.7815 -0.498349 33.8593 0.673484 30.2344C1.86095 26.6095 4.45486 23.6562 8.18911 21.7031C9.56409 20.9687 10.5016 19.6718 10.7672 18.1406C11.4703 13.9845 13.4861 10.5938 16.5641 8.35938C19.6425 6.10938 23.4869 5.25 27.6588 5.85938C29.2056 6.09364 30.7214 5.59371 31.8463 4.5C34.8624 1.56265 38.471 3.08162e-05 42.2838 0Z" fill="url(#paint0_linear_44_102)"/>
<defs>
<linearGradient id="paint0_linear_44_102" x1="42.2838" y1="0" x2="42.2838" y2="87.5" gradientUnits="userSpaceOnUse">
<stop stop-color="#0777E6"/>
<stop offset="1" stop-color="#69B4FF"/>
</linearGradient>
</defs>
</svg>
