<svg width="55" height="48" viewBox="0 0 55 48" fill="none" xmlns="http://www.w3.org/2000/svg">
<path d="M0 3C0 1.34315 1.34315 0 3 0H52C53.6569 0 55 1.34315 55 3V45C55 46.6569 53.6569 48 52 48H3C1.34315 48 0 46.6569 0 45V3Z" fill="white"/>
<path d="M33 39C33 37.8954 33.8954 37 35 37H50.4118C51.5163 37 52.4118 37.8954 52.4118 39V43C52.4118 44.1046 51.5163 45 50.4118 45H35C33.8954 45 33 44.1046 33 43V39Z" fill="#0777E6"/>
<path opacity="0.4" d="M5.35303 6C5.35303 5.72386 5.57688 5.5 5.85303 5.5H45.853C46.1292 5.5 46.353 5.72386 46.353 6C46.353 6.27614 46.1292 6.5 45.853 6.5H5.85303C5.57689 6.5 5.35303 6.27614 5.35303 6Z" fill="#191728" stroke="#AAAAAA"/>
<path opacity="0.4" d="M5.35303 11C5.35303 10.7239 5.57688 10.5 5.85303 10.5H26.853C27.1292 10.5 27.353 10.7239 27.353 11C27.353 11.2761 27.1292 11.5 26.853 11.5H5.85303C5.57688 11.5 5.35303 11.2761 5.35303 11Z" fill="#191728" stroke="#AAAAAA"/>
<path opacity="0.4" d="M5.35303 16C5.35303 15.7239 5.57688 15.5 5.85303 15.5H36.853C37.1292 15.5 37.353 15.7239 37.353 16C37.353 16.2761 37.1292 16.5 36.853 16.5H5.85303C5.57688 16.5 5.35303 16.2761 5.35303 16Z" fill="#191728" stroke="#AAAAAA"/>
</svg>
