<svg width="80" height="32" viewBox="0 0 80 32" fill="none" xmlns="http://www.w3.org/2000/svg">
<path d="M0 3C0 1.34315 1.34315 0 3 0H77C78.6569 0 80 1.34315 80 3V29C80 30.6569 78.6569 32 77 32H3C1.34315 32 0 30.6569 0 29V3Z" fill="white"/>
<path opacity="0.7" d="M50 0H77C78.6569 0 80 1.34315 80 3V29C80 30.6569 78.6569 32 77 32H50V0Z" fill="#B9F3FF"/>
<rect x="53" y="21" width="24" height="8" rx="2" fill="#0777E6"/>
<path opacity="0.4" d="M6 5.5H60C60.2761 5.5 60.5 5.72386 60.5 6C60.5 6.27614 60.2761 6.5 60 6.5H6C5.72386 6.5 5.5 6.27614 5.5 6C5.5 5.72386 5.72386 5.5 6 5.5Z" fill="#191728" stroke="#AAAAAA"/>
<path opacity="0.4" d="M6 10.5H42C42.2761 10.5 42.5 10.7239 42.5 11C42.5 11.2761 42.2761 11.5 42 11.5H6C5.72386 11.5 5.5 11.2761 5.5 11C5.5 10.7239 5.72386 10.5 6 10.5Z" fill="#191728" stroke="#AAAAAA"/>
<path opacity="0.4" d="M6 15.5H45C45.2761 15.5 45.5 15.7239 45.5 16C45.5 16.2761 45.2761 16.5 45 16.5H6C5.72386 16.5 5.5 16.2761 5.5 16C5.5 15.7239 5.72386 15.5 6 15.5Z" fill="#191728" stroke="#AAAAAA"/>
</svg>
