<svg width="16" height="18" viewBox="0 0 16 18" fill="none" xmlns="http://www.w3.org/2000/svg">
<path d="M8 11.2501C7.80109 11.2501 7.61032 11.1711 7.46967 11.0304C7.32902 10.8898 7.25 10.699 7.25 10.5001V4.50009C7.25 4.30117 7.32902 4.11041 7.46967 3.96976C7.61032 3.8291 7.80109 3.75009 8 3.75009C8.19892 3.75009 8.38968 3.8291 8.53033 3.96976C8.67099 4.11041 8.75 4.30117 8.75 4.50009V10.5001C8.75 10.699 8.67099 10.8898 8.53033 11.0304C8.38968 11.1711 8.19892 11.2501 8 11.2501ZM8.59475 17.8201C10.2148 17.1691 15.5 14.6093 15.5 9.03234V5.15409C15.5008 4.36585 15.2529 3.59744 14.7916 2.95832C14.3302 2.31921 13.6789 1.84197 12.9305 1.59459L8.23625 0.0383369C8.083 -0.0133893 7.91701 -0.0133893 7.76375 0.0383369L3.0695 1.59459C2.32109 1.84197 1.66981 2.31921 1.20845 2.95832C0.747092 3.59744 0.499171 4.36585 0.500002 5.15409V9.03234C0.500002 13.9538 5.75375 16.9643 7.36475 17.7698C7.56851 17.8671 7.78127 17.9442 8 18.0001C8.20337 17.9585 8.40246 17.8982 8.59475 17.8201ZM12.458 3.01809C12.9069 3.1669 13.2975 3.45337 13.5743 3.83681C13.8511 4.22025 14.0001 4.68117 14 5.15409V9.03234C14 13.6696 9.43475 15.8656 8.03525 16.4281C6.61925 15.7201 2 13.0943 2 9.03234V5.15409C1.99994 4.68117 2.14889 4.22025 2.4257 3.83681C2.70251 3.45337 3.09311 3.1669 3.542 3.01809L8 1.54059L12.458 3.01809ZM8 12.7501C7.85167 12.7501 7.70666 12.7941 7.58332 12.8765C7.45999 12.9589 7.36386 13.076 7.30709 13.2131C7.25033 13.3501 7.23547 13.5009 7.26441 13.6464C7.29335 13.7919 7.36478 13.9255 7.46967 14.0304C7.57456 14.1353 7.7082 14.2067 7.85368 14.2357C7.99917 14.2646 8.14997 14.2498 8.28702 14.193C8.42406 14.1362 8.54119 14.0401 8.6236 13.9168C8.70602 13.7934 8.75 13.6484 8.75 13.5001C8.75 13.3012 8.67099 13.1104 8.53033 12.9698C8.38968 12.8291 8.19892 12.7501 8 12.7501Z" fill="#8C79FF"/>
</svg>
