<svg width="30" height="30" viewBox="0 0 30 30" fill="none" xmlns="http://www.w3.org/2000/svg">
<circle cx="15" cy="15" r="15" fill="#2B2653"/>
<path d="M16.1533 9.34001L17.3266 11.6867C17.4866 12.0133 17.9133 12.3267 18.2733 12.3867L20.3999 12.74C21.7599 12.9667 22.0799 13.9533 21.0999 14.9267L19.4466 16.58C19.1666 16.86 19.0133 17.4 19.0999 17.7867L19.5733 19.8333C19.9466 21.4533 19.0866 22.08 17.6533 21.2333L15.6599 20.0533C15.2999 19.84 14.7066 19.84 14.3399 20.0533L12.3466 21.2333C10.9199 22.08 10.0533 21.4467 10.4266 19.8333L10.8999 17.7867C10.9866 17.4 10.8333 16.86 10.5533 16.58L8.89994 14.9267C7.92661 13.9533 8.23994 12.9667 9.59994 12.74L11.7266 12.3867C12.0799 12.3267 12.5066 12.0133 12.6666 11.6867L13.8399 9.34001C14.4799 8.06668 15.5199 8.06668 16.1533 9.34001Z" stroke="#798EFF" stroke-width="1.5" stroke-linecap="round" stroke-linejoin="round"/>
</svg>
