<svg width="60" height="54" viewBox="0 0 60 54" fill="none" xmlns="http://www.w3.org/2000/svg">
<path d="M19.752 52.9132C19.3075 53.3593 18.5869 53.3593 18.1424 52.9132L5.09642 39.8202C-1.69881 33.0005 -1.69881 21.9436 5.09642 15.1239C5.41248 14.8067 5.92491 14.8067 6.24097 15.1239L31.0186 39.9907C31.463 40.4368 31.463 41.16 31.0186 41.606L19.752 52.9132Z" fill="#0A081B"/>
<path d="M21.4377 26.1631C21.124 25.8436 21.1277 25.3293 21.446 25.0144L46.4028 0.328703C46.8504 -0.114105 47.571 -0.108857 48.0122 0.340424L59.1968 11.7293C59.638 12.1786 59.6328 12.9018 59.1851 13.3446L46.0448 26.3423C39.2004 33.1123 28.1835 33.0321 21.4377 26.1631Z" fill="#0A081B"/>
</svg>
