<svg width="14" height="14" viewBox="0 0 14 14" fill="none" xmlns="http://www.w3.org/2000/svg">
<path d="M13.5747 5.4943C13.048 4.63197 12.3838 3.8617 11.6082 3.21405L13.2416 1.58071C13.3478 1.4707 13.4066 1.32335 13.4053 1.1704C13.404 1.01745 13.3426 0.871142 13.2345 0.762987C13.1263 0.654832 12.98 0.593484 12.8271 0.592155C12.6741 0.590826 12.5268 0.649622 12.4167 0.755881L10.6405 2.53446C9.53939 1.88044 8.28057 1.53957 6.99991 1.54863C3.38849 1.54863 1.33049 4.0208 0.425158 5.4943C0.145466 5.94668 -0.00268555 6.46802 -0.00268555 6.99988C-0.00268555 7.53174 0.145466 8.05309 0.425158 8.50546C0.951766 9.36779 1.61603 10.1381 2.39157 10.7857L0.758241 12.419C0.702527 12.4729 0.658087 12.5372 0.627515 12.6084C0.596943 12.6796 0.580851 12.7561 0.580178 12.8336C0.579505 12.911 0.594265 12.9878 0.623595 13.0595C0.652926 13.1312 0.69624 13.1963 0.751011 13.2511C0.805781 13.3059 0.870912 13.3492 0.942601 13.3785C1.01429 13.4079 1.0911 13.4226 1.16856 13.4219C1.24601 13.4213 1.32256 13.4052 1.39373 13.3746C1.4649 13.344 1.52926 13.2996 1.58307 13.2439L3.36341 11.4635C4.46315 12.1175 5.72047 12.4589 6.99991 12.4511C10.6113 12.4511 12.6693 9.97896 13.5747 8.50546C13.8543 8.05309 14.0025 7.53174 14.0025 6.99988C14.0025 6.46802 13.8543 5.94668 13.5747 5.4943ZM1.41916 7.89471C1.25299 7.62582 1.16497 7.31597 1.16497 6.99988C1.16497 6.68379 1.25299 6.37394 1.41916 6.10505C2.19732 4.84155 3.95607 2.7153 6.99991 2.7153C7.9684 2.70987 8.9233 2.94329 9.78008 3.39488L8.60582 4.56913C8.04578 4.19732 7.37435 4.03071 6.70546 4.09759C6.03657 4.16447 5.41141 4.46071 4.93608 4.93605C4.46074 5.41139 4.1645 6.03654 4.09762 6.70543C4.03074 7.37433 4.19734 8.04576 4.56916 8.6058L3.22166 9.9533C2.50713 9.37563 1.8974 8.67927 1.41916 7.89471ZM8.74991 6.99988C8.74991 7.46401 8.56553 7.90913 8.23734 8.23732C7.90916 8.56551 7.46404 8.74988 6.99991 8.74988C6.74004 8.74887 6.48377 8.68905 6.25032 8.57488L8.57491 6.2503C8.68907 6.48375 8.7489 6.74001 8.74991 6.99988ZM5.24991 6.99988C5.24991 6.53575 5.43428 6.09063 5.76247 5.76244C6.09066 5.43426 6.53578 5.24988 6.99991 5.24988C7.25978 5.25089 7.51604 5.31072 7.74949 5.42488L5.42491 7.74946C5.31074 7.51602 5.25091 7.25975 5.24991 6.99988ZM12.5807 7.89471C11.8025 9.15821 10.0437 11.2845 6.99991 11.2845C6.03141 11.2899 5.07652 11.0565 4.21974 10.6049L5.39399 9.43063C5.95403 9.80245 6.62546 9.96905 7.29436 9.90217C7.96325 9.83529 8.5884 9.53905 9.06374 9.06371C9.53908 8.58838 9.83532 7.96322 9.9022 7.29433C9.96908 6.62544 9.80247 5.954 9.43066 5.39396L10.7782 4.04646C11.4927 4.62413 12.1024 5.32049 12.5807 6.10505C12.7468 6.37394 12.8348 6.68379 12.8348 6.99988C12.8348 7.31597 12.7468 7.62582 12.5807 7.89471Z" fill="white" stroke="#262E84" stroke-width="0.4"/>
</svg>
