<svg width="14" height="16" viewBox="0 0 14 16" fill="none" xmlns="http://www.w3.org/2000/svg">
<path d="M11.6627 5.31174L5.30267 0.645071C4.80593 0.281327 4.21815 0.0622668 3.60451 0.0121794C2.99087 -0.037908 2.37535 0.082935 1.8262 0.361309C1.27704 0.639683 0.815718 1.06471 0.493372 1.58926C0.171027 2.11381 0.000257343 2.71739 0 3.33307V12.6664C0.000109848 13.2824 0.170889 13.8862 0.493383 14.411C0.815878 14.9358 1.27748 15.361 1.82695 15.6393C2.37642 15.9177 2.99227 16.0384 3.60616 15.988C4.22006 15.9375 4.80797 15.718 5.30467 15.3537L11.6647 10.6871C12.0868 10.3775 12.4302 9.97278 12.6668 9.50578C12.9034 9.03878 13.0268 8.5226 13.0268 7.99907C13.0268 7.47554 12.9034 6.95936 12.6668 6.49236C12.4302 6.02537 12.0868 5.62067 11.6647 5.31107L11.6627 5.31174ZM10.8733 9.61174L4.51333 14.2784C4.21534 14.4962 3.86291 14.6272 3.49505 14.6571C3.12718 14.6869 2.75824 14.6144 2.42904 14.4475C2.09985 14.2806 1.82326 14.0259 1.62987 13.7116C1.43648 13.3972 1.33385 13.0355 1.33333 12.6664V3.33307C1.32963 2.9633 1.43033 2.59999 1.62385 2.28489C1.81737 1.96978 2.09587 1.71566 2.42733 1.55174C2.70926 1.40833 3.02103 1.33342 3.33733 1.33307C3.76126 1.33469 4.17348 1.47233 4.51333 1.72574L10.8733 6.3924C11.1263 6.5782 11.332 6.82094 11.4738 7.10098C11.6156 7.38103 11.6895 7.69051 11.6895 8.0044C11.6895 8.3183 11.6156 8.62778 11.4738 8.90783C11.332 9.18787 11.1263 9.43061 10.8733 9.6164V9.61174Z" fill="white"/>
</svg>
