<svg width="18" height="19" viewBox="0 0 18 19" fill="none" xmlns="http://www.w3.org/2000/svg">
<rect x="0.5" y="1" width="17" height="17" rx="8.5" stroke="#8C79FF"/>
<path d="M6.61 7.57C6.79 7.22 7.06 6.94 7.4 6.74C7.74 6.54 8.15 6.44 8.61 6.44C9.03 6.44 9.41 6.52 9.74 6.67C10.06 6.83 10.31 7.04 10.49 7.3C10.67 7.57 10.76 7.87 10.76 8.21C10.76 8.62 10.67 8.95 10.5 9.21C10.32 9.47 10.08 9.71 9.78 9.92C9.44 10.16 9.21 10.35 9.07 10.51C8.93 10.67 8.86 10.87 8.86 11.11V11.37H8.09V11.02C8.09 10.78 8.13 10.56 8.23 10.38C8.32 10.2 8.43 10.06 8.57 9.94C8.71 9.82 8.9 9.68 9.16 9.5C9.4 9.33 9.59 9.15 9.71 8.96C9.83 8.78 9.9 8.55 9.9 8.29C9.9 7.97 9.78 7.71 9.54 7.51C9.3 7.31 9 7.2 8.62 7.2C8.18 7.2 7.83 7.34 7.57 7.62C7.31 7.9 7.18 8.27 7.18 8.73H6.34C6.34 8.31 6.43 7.92 6.61 7.57ZM8.08 12.6C8.18 12.5 8.32 12.44 8.49 12.44C8.65 12.44 8.79 12.5 8.9 12.6C9 12.7 9.06 12.84 9.06 13C9.06 13.17 9 13.31 8.9 13.41C8.79 13.51 8.65 13.56 8.49 13.56C8.32 13.56 8.18 13.51 8.08 13.41C7.97 13.31 7.92 13.17 7.92 13C7.92 12.84 7.97 12.7 8.08 12.6Z" fill="#8C79FF"/>
</svg>
