<svg width="18" height="18" viewBox="0 0 18 18" fill="none" xmlns="http://www.w3.org/2000/svg">
<rect x="0.5" y="0.5" width="17" height="17" rx="8.5" stroke="#8C79FF"/>
<path d="M8.85017 10.1824L8.85145 10.2311H8.90015H9.51302H9.56181L9.56301 10.1823L9.67974 5.40576L9.681 5.35454H9.62976H8.77368H8.72234L8.7237 5.40586L8.85017 10.1824ZM9.63477 12.1632L9.63479 12.1632L9.63593 12.162C9.7501 12.0479 9.80623 11.9017 9.80623 11.7278C9.80623 11.5543 9.75026 11.4108 9.63535 11.3028C9.52127 11.189 9.3753 11.1331 9.20172 11.1331C9.02814 11.1331 8.88217 11.189 8.76808 11.3028C8.65318 11.4108 8.59722 11.5543 8.59722 11.7278C8.59722 11.9017 8.65334 12.0479 8.76751 12.162L8.76749 12.1621L8.76867 12.1632C8.88301 12.2704 9.0288 12.3226 9.20172 12.3226C9.37465 12.3226 9.52043 12.2704 9.63477 12.1632Z" fill="#8C79FF" stroke="#8C79FF" stroke-width="0.1"/>
</svg>
