<svg width="28" height="28" viewBox="0 0 28 28" fill="none" xmlns="http://www.w3.org/2000/svg">
<rect x="0.5" y="0.5" width="27" height="27" rx="13.5" fill="#191728" stroke="#33304A"/>
<path d="M10.7059 12.4534C10.7059 11.8209 10.8393 11.2478 11.1062 10.7339C11.3829 10.2101 11.7732 9.8 12.2772 9.50353C12.7911 9.20706 13.389 9.05882 14.0709 9.05882C14.7033 9.05882 15.2617 9.17247 15.7459 9.39976C16.2302 9.62706 16.6008 9.93835 16.8577 10.3336C17.1245 10.7289 17.2579 11.1786 17.2579 11.6826C17.2579 12.2854 17.1295 12.7795 16.8725 13.1649C16.6156 13.5504 16.2598 13.9012 15.8052 14.2174C15.3111 14.5633 14.9603 14.8548 14.7528 15.092C14.5452 15.3193 14.4415 15.6158 14.4415 15.9814V16.3668H13.3001V15.848C13.3001 15.4824 13.3692 15.1661 13.5076 14.8993C13.6459 14.6325 13.8139 14.4151 14.0116 14.2471C14.2191 14.0692 14.5106 13.8518 14.8862 13.5948C15.2518 13.3379 15.5236 13.0711 15.7015 12.7944C15.8892 12.5176 15.9831 12.1866 15.9831 11.8012C15.9831 11.3268 15.8052 10.9414 15.4495 10.6449C15.1036 10.3386 14.649 10.1854 14.0857 10.1854C13.4433 10.1854 12.9245 10.3929 12.5292 10.808C12.1438 11.2231 11.9511 11.7715 11.9511 12.4534H10.7059ZM13.0481 18.7831C13.0481 18.536 13.1271 18.3384 13.2852 18.1901C13.4433 18.032 13.6459 17.9529 13.893 17.9529C14.1401 17.9529 14.3426 18.032 14.5008 18.1901C14.6589 18.3384 14.7379 18.536 14.7379 18.7831C14.7379 19.0301 14.6589 19.2327 14.5008 19.3908C14.3426 19.5391 14.1401 19.6132 13.893 19.6132C13.6459 19.6132 13.4433 19.5391 13.2852 19.3908C13.1271 19.2327 13.0481 19.0301 13.0481 18.7831Z" fill="white"/>
</svg>
