<svg width="24" height="24" viewBox="0 0 24 24" fill="none" xmlns="http://www.w3.org/2000/svg">
<path d="M1.3119 11.8863C1.38033 11.111 1.48005 10.988 2.21426 10.7651C3.2134 10.4617 3.90948 9.82211 4.30836 8.87528C4.48824 8.44887 4.72972 8.33451 5.1853 8.48472C7.70662 9.31914 9.9415 7.50397 9.6003 4.90479C9.54556 4.49097 9.66776 4.23416 10.0451 4.04421C10.8194 3.65462 11.3454 3.03535 11.6387 2.2242C11.886 1.54 11.9994 1.46247 12.7434 1.46925C18.9837 1.52837 23.9872 6.52904 23.9999 12.7198C24.0165 21.0213 15.1777 26.4988 7.65578 22.849C3.47443 20.8207 0.912045 16.3918 1.3119 11.8863Z" fill="url(#paint0_linear_85_2355)"/>
<path d="M5.71031 2.83752C4.60461 2.84043 3.72278 3.72233 3.73158 4.81744C3.74038 5.91545 4.63687 6.78766 5.73769 6.77022C6.83264 6.75278 7.7174 5.84955 7.70176 4.76608C7.68612 3.70973 6.78376 2.83559 5.71031 2.83849V2.83752Z" fill="#1974D1"/>
<path d="M1.99046 5.51728C1.98068 4.96682 1.53488 4.53653 0.986425 4.54719C0.426239 4.55785 -0.000989556 4.98717 -1.19209e-05 5.53763C0.000965714 6.10457 0.469255 6.55715 1.03237 6.53486C1.58669 6.51257 2.00121 6.07259 1.99046 5.51728Z" fill="#1974D1"/>
<path d="M8.42324 2.47808C8.97169 2.46742 9.40479 2.0255 9.40479 1.47795C9.40479 0.91489 8.93454 0.472002 8.36165 0.495261C7.81124 0.51755 7.39085 0.966254 7.40747 1.51575C7.42409 2.06039 7.87674 2.48971 8.42324 2.47808Z" fill="#1974D1"/>
<path d="M2.73729 0.699741C2.72555 0.314031 2.39414 -0.0038414 2.00797 3.50842e-05C1.62474 0.00294245 1.29234 0.333413 1.29038 0.71234C1.28941 1.12034 1.63451 1.44887 2.04512 1.43143C2.44106 1.41398 2.74902 1.08836 2.73729 0.699741Z" fill="#1974D1"/>
<path d="M11.6482 17.5417C11.5752 17.6143 11.4568 17.6143 11.3838 17.5417L9.24084 15.4097C8.12463 14.2992 8.12463 12.4988 9.24084 11.3883C9.29276 11.3367 9.37693 11.3367 9.42885 11.3883L13.4989 15.4375C13.5719 15.5101 13.5719 15.6279 13.4989 15.7005L11.6482 17.5417Z" fill="white"/>
<path d="M11.9252 13.1859C11.8736 13.1338 11.8742 13.0501 11.9265 12.9988L16.026 8.97918C16.0995 8.90708 16.2179 8.90793 16.2904 8.98109L18.1276 10.8356C18.2001 10.9087 18.1992 11.0265 18.1257 11.0986L15.9672 13.215C14.8429 14.3174 13.0332 14.3044 11.9252 13.1859Z" fill="white"/>
<defs>
<linearGradient id="paint0_linear_85_2355" x1="12.6355" y1="1.46887" x2="12.6355" y2="24.0001" gradientUnits="userSpaceOnUse">
<stop stop-color="#0777E6"/>
<stop offset="1" stop-color="#69B4FF"/>
</linearGradient>
</defs>
</svg>
