<svg width="24" height="24" viewBox="0 0 24 24" fill="none" xmlns="http://www.w3.org/2000/svg">
<g opacity="0.6">
<path d="M17.813 21.8711L13.8369 17.8951C14.9205 16.5699 15.4532 14.8789 15.325 13.172C15.1967 11.465 14.4173 9.87267 13.1479 8.72427C11.8785 7.57587 10.2163 6.9593 8.50509 7.00209C6.79386 7.04487 5.16454 7.74374 3.95414 8.95414C2.74374 10.1645 2.04487 11.7939 2.00209 13.5051C1.9593 15.2163 2.57587 16.8785 3.72427 18.1479C4.87267 19.4173 6.46502 20.1967 8.17198 20.325C9.87893 20.4532 11.5699 19.9205 12.8951 18.8369L16.8711 22.813C16.9968 22.9344 17.165 23.0015 17.3397 23C17.5143 22.9985 17.6814 22.9284 17.8049 22.8049C17.9284 22.6814 17.9985 22.5143 18 22.3397C18.0015 22.165 17.9344 21.9968 17.813 21.8711ZM8.68251 19.0115C7.62855 19.0115 6.59825 18.6989 5.72191 18.1134C4.84556 17.5278 4.16254 16.6956 3.7592 15.7218C3.35587 14.7481 3.25034 13.6766 3.45595 12.6429C3.66157 11.6092 4.16911 10.6596 4.91437 9.91437C5.65964 9.16911 6.60917 8.66157 7.64289 8.45595C8.6766 8.25034 9.74808 8.35587 10.7218 8.7592C11.6956 9.16254 12.5278 9.84556 13.1134 10.7219C13.6989 11.5982 14.0115 12.6285 14.0115 13.6825C14.0099 15.0954 13.4479 16.4499 12.4489 17.4489C11.4499 18.4479 10.0954 19.0099 8.68251 19.0115Z" fill="white"/>
<path d="M17.15 8C17.3471 8.53278 17.7672 8.95285 18.3 9.15C17.7672 9.34715 17.3471 9.76722 17.15 10.3C16.9529 9.76722 16.5328 9.34715 16 9.15C16.5328 8.95285 16.9529 8.53278 17.15 8Z" fill="white"/>
<path d="M17.15 2C17.3471 2.53278 17.7672 2.95285 18.3 3.15C17.7672 3.34715 17.3471 3.76722 17.15 4.3C16.9529 3.76722 16.5328 3.34715 16 3.15C16.5328 2.95285 16.9529 2.53278 17.15 2Z" fill="white"/>
<path d="M20 3C20.5143 4.38987 21.6101 5.4857 23 6C21.6101 6.5143 20.5143 7.61013 20 9C19.4857 7.61013 18.3899 6.5143 17 6C18.3899 5.4857 19.4857 4.38987 20 3Z" fill="white"/>
</g>
</svg>
