<svg width="14" height="14" viewBox="0 0 14 14" fill="none" xmlns="http://www.w3.org/2000/svg">
<g clip-path="url(#clip0_1404_259)">
<path d="M13.5747 5.49434C12.6699 4.02084 10.6119 1.54868 6.99991 1.54868C3.38791 1.54868 1.32991 4.02084 0.425158 5.49434C0.145466 5.94672 -0.00268555 6.46807 -0.00268555 6.99993C-0.00268555 7.53178 0.145466 8.05313 0.425158 8.50551C1.32991 9.97901 3.38791 12.4512 6.99991 12.4512C10.6119 12.4512 12.6699 9.97901 13.5747 8.50551C13.8543 8.05313 14.0025 7.53178 14.0025 6.99993C14.0025 6.46807 13.8543 5.94672 13.5747 5.49434ZM12.5801 7.89476C11.8031 9.15826 10.0443 11.2845 6.99991 11.2845C3.95549 11.2845 2.19674 9.15826 1.41974 7.89476C1.25357 7.62587 1.16555 7.31602 1.16555 6.99993C1.16555 6.68383 1.25357 6.37398 1.41974 6.10509C2.19674 4.84159 3.95549 2.71534 6.99991 2.71534C10.0443 2.71534 11.8031 4.83926 12.5801 6.10509C12.7462 6.37398 12.8343 6.68383 12.8343 6.99993C12.8343 7.31602 12.7462 7.62587 12.5801 7.89476Z" fill="white" stroke="#262E84" stroke-width="0.4"/>
<path d="M5.43506 4.65795C5.89825 4.34846 6.4428 4.18326 6.99986 4.18325C7.74662 4.18416 8.46254 4.48122 8.99058 5.00926C9.51864 5.53731 9.81569 6.25325 9.81659 7.00004C9.81656 7.55708 9.65137 8.10161 9.34189 8.56477C9.03239 9.02797 8.59249 9.38899 8.07781 9.60218C7.56313 9.81537 6.9968 9.87115 6.45042 9.76246C5.90404 9.65378 5.40215 9.38552 5.00824 8.9916C4.61432 8.59768 4.34606 8.0958 4.23737 7.54942C4.12869 7.00304 4.18447 6.43671 4.39766 5.92203C4.61085 5.40735 4.97187 4.96745 5.43506 4.65795ZM5.97211 8.53814C6.27635 8.74142 6.63402 8.84992 6.99992 8.84992C7.49057 8.84992 7.96113 8.65501 8.30807 8.30807C8.65501 7.96112 8.84992 7.49057 8.84992 6.99992C8.84992 6.63402 8.74142 6.27634 8.53814 5.97211C8.33486 5.66788 8.04593 5.43076 7.70788 5.29074C7.36984 5.15072 6.99787 5.11408 6.639 5.18547C6.28014 5.25685 5.9505 5.43304 5.69177 5.69177C5.43304 5.9505 5.25685 6.28014 5.18547 6.639C5.11408 6.99787 5.15072 7.36984 5.29074 7.70788C5.43076 8.04593 5.66788 8.33486 5.97211 8.53814Z" fill="white" stroke="#262E84" stroke-width="0.2"/>
</g>
<defs>
<clipPath id="clip0_1404_259">
<rect width="14" height="14" fill="white"/>
</clipPath>
</defs>
</svg>
