<svg width="7" height="8" viewBox="0 0 7 8" fill="none" xmlns="http://www.w3.org/2000/svg">
<path d="M0.646447 6.39645C0.451184 6.59171 0.451184 6.90829 0.646447 7.10355C0.841709 7.29882 1.15829 7.29882 1.35355 7.10355L0.646447 6.39645ZM7 1.25C7 0.973858 6.77614 0.75 6.5 0.75H2C1.72386 0.75 1.5 0.973858 1.5 1.25C1.5 1.52614 1.72386 1.75 2 1.75H6V5.75C6 6.02614 6.22386 6.25 6.5 6.25C6.77614 6.25 7 6.02614 7 5.75V1.25ZM1 6.75L1.35355 7.10355L6.85355 1.60355L6.5 1.25L6.14645 0.896447L0.646447 6.39645L1 6.75Z" fill="#8C79FF"/>
</svg>
