<svg width="80" height="32" viewBox="0 0 80 32" fill="none" xmlns="http://www.w3.org/2000/svg">
<rect width="80" height="32" rx="3" fill="white"/>
<path d="M28 23C28 21.8954 28.8954 21 30 21H50C51.1046 21 52 21.8954 52 23V27C52 28.1046 51.1046 29 50 29H30C28.8954 29 28 28.1046 28 27V23Z" fill="#0777E6"/>
<path opacity="0.4" d="M10.5 6C10.5 5.72386 10.7239 5.5 11 5.5H65C65.2761 5.5 65.5 5.72386 65.5 6C65.5 6.27614 65.2761 6.5 65 6.5H11C10.7239 6.5 10.5 6.27614 10.5 6Z" fill="#191728" stroke="#AAAAAA"/>
<path opacity="0.4" d="M21.5 11C21.5 10.7239 21.7239 10.5 22 10.5H54C54.2761 10.5 54.5 10.7239 54.5 11C54.5 11.2761 54.2761 11.5 54 11.5H22C21.7239 11.5 21.5 11.2761 21.5 11Z" fill="#191728" stroke="#AAAAAA"/>
<path opacity="0.4" d="M15.5 16C15.5 15.7239 15.7239 15.5 16 15.5H60C60.2761 15.5 60.5 15.7239 60.5 16C60.5 16.2761 60.2761 16.5 60 16.5H16C15.7239 16.5 15.5 16.2761 15.5 16Z" fill="#191728" stroke="#AAAAAA"/>
</svg>
