<svg width="140" height="32" viewBox="0 0 140 32" fill="none" xmlns="http://www.w3.org/2000/svg">
<path d="M0 3C0 1.34315 1.34315 0 3 0H137C138.657 0 140 1.34315 140 3V29C140 30.6569 138.657 32 137 32H3C1.34315 32 0 30.6569 0 29V3Z" fill="white"/>
<path d="M92.75 14C92.75 12.8954 93.6454 12 94.75 12H132.75C133.855 12 134.75 12.8954 134.75 14V18C134.75 19.1046 133.855 20 132.75 20H94.75C93.6454 20 92.75 19.1046 92.75 18V14Z" fill="#0777E6"/>
<path opacity="0.4" d="M9.75 12.5H36.75C37.0261 12.5 37.25 12.7239 37.25 13C37.25 13.2761 37.0261 13.5 36.75 13.5H9.75C9.47386 13.5 9.25 13.2761 9.25 13C9.25 12.7239 9.47386 12.5 9.75 12.5Z" fill="#191728" stroke="#AAAAAA"/>
<path opacity="0.4" d="M9.75 17.5H45.75C46.0261 17.5 46.25 17.7239 46.25 18C46.25 18.2761 46.0261 18.5 45.75 18.5H9.75C9.47386 18.5 9.25 18.2761 9.25 18C9.25 17.7239 9.47386 17.5 9.75 17.5Z" fill="#191728" stroke="#AAAAAA"/>
<path opacity="0.4" d="M9.75 22.5H33.75C34.0261 22.5 34.25 22.7239 34.25 23C34.25 23.2761 34.0261 23.5 33.75 23.5H9.75C9.47386 23.5 9.25 23.2761 9.25 23C9.25 22.7239 9.47386 22.5 9.75 22.5Z" fill="#191728" stroke="#AAAAAA"/>
</svg>
